<?xml version="1.0" encoding="UTF-8"?>
<svg width="28px" height="36px" viewBox="0 0 28 36" version="1.1" xmlns="http://www.w3.org/2000/svg" xmlns:xlink="http://www.w3.org/1999/xlink">
    <title>noun_Ghost_2076593 Copy</title>
    <g id="Proto-V5-Green" stroke="none" stroke-width="1" fill="none" fill-rule="evenodd">
        <g id="2" transform="translate(-31.000000, -17.000000)" fill="#FFFFFF" fill-rule="nonzero">
            <g id="noun_Ghost_2076593-Copy" transform="translate(31.000000, 17.000000)">
                <path d="M23.688085,4.19889132 C21.1529053,1.70332384 17.7066455,0.158448729 13.8642638,0.158448729 C6.21911261,0.158448729 0,6.37756134 0,14.0227125 L0,27.8666662 C0,28.4212367 0.237673093,28.8965829 0.594182733,29.2530926 C0.950692373,29.6096022 1.46565074,29.8472753 1.98060911,29.8472753 C3.08975021,29.8472753 3.96121822,28.9758073 3.96121822,27.8666662 L3.96121822,25.1141235 C3.96121822,24.559553 4.19889132,24.0842068 4.55540096,23.7276972 C4.9119106,23.3711875 5.42686896,23.1335144 5.94182733,23.1335144 C7.05096844,23.1335144 7.92243644,24.0049824 7.92243644,25.1141235 L7.92243644,31.4520727 L7.92243644,33.5515183 C7.92243644,34.6606594 8.79390445,35.5321275 9.90304556,35.5321275 C11.0121867,35.5321275 11.8836547,34.6606594 11.8836547,33.5515183 L11.8836547,33.4326818 L11.8836547,25.1141235 C11.8836547,24.0049824 12.7551227,23.1335144 13.8642638,23.1335144 C14.4188343,23.1335144 14.8941805,23.3711875 15.2506902,23.7276972 C15.6071998,24.0842068 15.8448729,24.5991652 15.8448729,25.1141235 L15.8448729,26.2106522 C15.8448729,27.3197933 16.7163409,28.1912613 17.825482,28.1912613 C18.9346231,28.1912613 19.8060911,27.3197933 19.8060911,26.2106522 L19.8060911,25.1141235 C19.8060911,24.0049824 20.6775591,23.1335144 21.7867002,23.1335144 C22.3412708,23.1335144 22.816617,23.3711875 23.1731266,23.7276972 C23.5296362,24.0842068 23.7673093,24.5991652 23.7673093,25.1141235 L23.7673093,30.4993719 C23.7673093,31.608513 24.6387773,32.479981 25.7479184,32.479981 C26.8570595,32.479981 27.7285276,31.608513 27.7285276,30.4993719 L27.7285276,23.1335144 L27.7285276,14.0227125 C27.7285276,10.1803308 26.1836524,6.73407098 23.688085,4.19889132 Z M9.0913798,11.933083 C7.22249289,11.933083 5.6934036,10.4039937 5.6934036,8.53510683 C5.6934036,6.66621993 7.22249289,5.13713064 9.0913798,5.13713064 C10.9602667,5.13713064 12.489356,6.66621993 12.489356,8.53510683 C12.489356,10.4464684 10.9602667,11.933083 9.0913798,11.933083 Z M13.910285,20.0241993 C10.6058202,20.0241993 7.86783521,17.3892063 7.86783521,14.1070221 L9.80330739,14.1070221 L10.7474402,16.041112 C10.9834734,16.4571635 11.5971597,16.4571635 11.8331929,16.041112 L12.7773256,14.1070221 L14.948831,14.1070221 L15.8929638,16.041112 C16.128997,16.4571635 16.7426833,16.4571635 16.9787165,16.041112 L17.9228492,14.1070221 L19.8583214,14.1070221 C19.9527347,17.3892063 17.2147497,20.0241993 13.910285,20.0241993 Z M18.5206652,11.933083 C16.8716473,11.933083 15.5224509,10.5838866 15.5224509,8.93486874 C15.5224509,7.28585088 16.8716473,5.93665445 18.5206652,5.93665445 C20.169683,5.93665445 21.5188795,7.28585088 21.5188795,8.93486874 C21.5188795,10.6213643 20.169683,11.933083 18.5206652,11.933083 Z" id="Shape"></path>
            </g>
        </g>
    </g>
</svg>